<?xml version="1.0" standalone="no"?>
<!DOCTYPE svg PUBLIC "-//W3C//DTD SVG 20010904//EN"
 "http://www.w3.org/TR/2001/REC-SVG-20010904/DTD/svg10.dtd">
<svg version="1.0" xmlns="http://www.w3.org/2000/svg"
 width="16.000000pt" height="16.000000pt" viewBox="0 0 16.000000 16.000000"
 preserveAspectRatio="xMidYMid meet">
<metadata>
Created by potrace 1.11, written by Peter Selinger 2001-2013
</metadata>
<g transform="translate(0.000000,16.000000) scale(0.005993,-0.005993)"
fill="#000000" stroke="none">
<path d="M549 2295 c-3 -2 -14 -6 -25 -8 -31 -5 -106 -44 -147 -78 -40 -33
-117 -139 -117 -161 0 -8 -7 -24 -16 -36 -8 -12 -13 -22 -11 -22 2 0 -2 -26
-10 -57 -7 -32 -16 -69 -18 -83 -2 -14 -7 -36 -10 -50 -3 -14 -8 -36 -11 -50
-4 -24 -25 -124 -30 -145 -7 -29 -14 -66 -24 -120 -6 -33 -14 -67 -17 -75 -3
-8 -7 -22 -8 -30 -1 -8 -5 -28 -9 -45 -3 -16 -8 -40 -10 -53 -3 -13 -7 -31
-10 -40 -3 -9 -8 -30 -11 -47 -2 -16 -7 -41 -10 -55 -6 -25 -14 -68 -19 -105
-2 -11 -4 -20 -6 -20 -1 0 -3 -11 -4 -25 -2 -14 -7 -41 -12 -60 -4 -19 -8 -87
-9 -150 0 -107 2 -119 29 -173 41 -84 116 -157 207 -201 72 -34 82 -36 175
-36 93 0 104 2 172 34 86 42 151 104 190 183 29 58 58 138 67 184 3 13 7 35
10 49 3 14 7 36 10 50 3 14 7 38 11 53 3 16 7 38 9 50 5 42 16 90 21 99 3 4
13 4 22 0 9 -5 53 -8 97 -7 79 2 154 23 183 52 26 25 48 30 132 29 75 -1 89
-4 120 -27 53 -40 115 -56 201 -54 41 1 80 5 87 8 13 9 20 -1 27 -44 3 -19 8
-41 10 -49 5 -17 14 -70 21 -115 2 -16 6 -41 10 -55 3 -14 7 -34 9 -45 3 -11
6 -28 8 -37 2 -10 6 -21 10 -24 4 -4 7 -14 7 -22 0 -30 67 -147 110 -192 41
-43 126 -96 175 -109 11 -3 70 -6 130 -6 103 0 114 2 169 30 109 56 174 128
214 237 18 48 21 74 18 165 -3 101 -6 126 -21 173 -3 10 -8 31 -10 46 -4 28
-9 53 -20 101 -7 31 -21 97 -31 143 -4 23 -12 62 -18 100 -1 8 -6 29 -9 45
-15 64 -19 81 -22 100 -2 11 -6 31 -9 45 -3 14 -12 57 -21 95 -8 39 -17 81
-20 95 -7 35 -11 57 -28 127 -8 34 -13 64 -10 67 3 3 1 11 -4 18 -5 7 -15 31
-21 54 -16 56 -81 153 -128 192 -36 30 -107 70 -144 81 -8 3 -60 6 -115 7 -89
2 -107 0 -165 -24 -36 -15 -85 -40 -110 -57 -59 -38 -91 -41 -473 -40 l-313 2
-70 42 c-105 61 -169 81 -267 81 -46 0 -86 -2 -88 -5z m151 -99 c41 -7 61 -17
135 -67 39 -25 81 -50 95 -55 37 -11 780 -12 810 0 14 5 52 28 85 50 33 23 71
47 85 53 31 16 109 33 124 28 6 -2 26 -6 44 -9 42 -6 110 -39 147 -73 37 -34
86 -97 89 -115 1 -7 4 -17 8 -23 6 -10 14 -44 24 -100 3 -16 11 -55 19 -85 7
-30 16 -73 21 -95 4 -22 8 -44 10 -50 3 -13 35 -164 40 -190 2 -11 8 -43 14
-71 6 -28 13 -64 16 -80 2 -16 9 -42 14 -59 5 -16 12 -50 16 -75 4 -25 8 -47
9 -50 0 -3 5 -23 9 -45 5 -22 10 -50 11 -62 2 -11 6 -29 9 -40 5 -18 14 -61
23 -118 21 -134 -3 -219 -84 -300 -197 -194 -491 -79 -538 210 -2 11 -4 20 -5
20 -3 0 -11 38 -15 70 -2 17 -5 30 -6 30 -1 0 -3 9 -4 20 -2 11 -6 32 -9 48
-3 15 -8 39 -11 55 -3 15 -10 41 -15 57 -16 56 9 241 34 242 17 1 77 13 116
23 51 14 149 75 188 118 57 62 95 153 98 238 l3 74 -29 0 c-33 0 -37 -4 -45
-49 -10 -58 -62 -158 -102 -197 -21 -22 -60 -49 -86 -62 -101 -50 -184 -26
-312 90 l-59 55 -3 75 c-2 93 10 137 55 189 39 45 68 62 165 95 38 13 75 28
82 34 17 14 7 58 -16 70 -21 12 -81 7 -121 -9 -16 -6 -28 -7 -28 -4 0 4 -5 2
-12 -5 -7 -7 -18 -12 -26 -12 -15 0 -86 -52 -115 -85 -27 -31 -59 -94 -76
-155 -15 -49 -20 -172 -10 -208 2 -8 -5 -19 -16 -25 -79 -47 -108 -73 -138
-125 -17 -31 -31 -58 -30 -59 1 -2 -4 -22 -11 -46 -7 -24 -11 -53 -10 -64 10
-61 -57 -24 -72 40 -1 4 -2 8 -4 10 -1 1 -3 16 -5 34 -9 82 -61 148 -156 196
l-36 19 3 87 c4 107 -1 131 -27 126 -30 -6 -36 -12 -37 -42 -3 -73 -27 -120
-95 -185 -92 -86 -151 -121 -205 -121 -87 0 -191 64 -228 141 -10 20 -19 40
-20 45 -1 4 -2 8 -4 10 -5 7 -11 47 -11 85 -1 60 45 148 98 188 23 18 85 46
137 64 53 17 98 35 100 39 3 4 -1 18 -7 32 -12 22 -18 24 -77 23 -146 -1 -259
-72 -315 -196 -33 -72 -35 -81 -38 -163 -2 -57 16 -135 44 -186 23 -43 94
-111 141 -135 27 -13 49 -24 50 -23 2 0 15 -4 31 -10 29 -11 62 -19 111 -26
35 -5 33 -4 41 -40 26 -132 25 -180 -5 -295 -5 -19 -12 -49 -15 -67 -3 -18
-12 -63 -20 -100 -9 -37 -18 -79 -21 -92 -3 -14 -8 -29 -12 -35 -3 -6 -7 -16
-8 -22 -3 -20 -51 -89 -84 -121 -36 -35 -108 -73 -155 -80 -16 -3 -37 -6 -45
-8 -30 -4 -121 23 -159 48 -74 49 -134 123 -148 180 -7 32 -15 81 -15 92 1 18
12 90 18 107 3 9 7 27 10 40 2 13 7 34 10 48 2 14 7 41 10 60 2 19 7 43 10 52
6 21 13 53 20 98 3 19 9 51 14 70 5 19 12 51 15 70 3 19 8 43 11 52 5 16 9 35
19 88 3 14 7 36 10 50 4 14 8 34 10 45 2 11 6 31 9 45 4 14 8 36 11 50 3 14 7
36 10 50 3 14 8 39 10 55 3 17 9 39 12 50 4 11 8 27 9 35 1 8 5 26 8 40 6 25
10 42 20 90 8 34 69 120 108 151 38 30 98 62 98 53 0 -4 7 -1 15 6 8 7 15 10
15 7 0 -3 12 -2 28 3 15 4 36 6 47 4 11 -2 31 -6 45 -8z m399 -750 c29 -16 64
-51 78 -81 12 -24 8 -96 -6 -124 -38 -69 -150 -100 -213 -57 -54 36 -76 77
-72 135 3 63 27 99 85 128 46 24 80 23 128 -1z m578 15 c27 -2 82 -64 97 -108
18 -52 10 -101 -23 -141 -23 -27 -86 -55 -123 -54 -119 3 -190 180 -105 260
46 43 73 51 154 43z"/>
<path d="M866 2020 c-15 -5 -13 -12 14 -68 34 -68 82 -113 136 -130 51 -15 60
9 29 75 -34 74 -130 141 -179 123z"/>
<path d="M2065 1994 c7 -39 49 -107 82 -134 22 -19 71 -41 101 -46 65 -12 -19
146 -100 187 -22 11 -52 23 -66 25 -23 5 -24 3 -17 -32z"/>
<path d="M691 1847 c-4 -10 -7 -39 -6 -63 l2 -44 -64 0 c-34 0 -63 -4 -64 -10
-1 -5 -1 -19 -1 -30 0 -45 0 -46 65 -44 l64 1 -1 -64 c-1 -36 3 -63 9 -64 16
-2 48 -2 65 -1 12 2 15 16 15 65 l0 62 59 0 c62 0 72 9 71 60 0 18 -8 20 -66
23 l-67 3 2 49 c3 62 -3 71 -44 74 -24 2 -34 -3 -39 -17z m65 -150 c2 -45 -46
-43 -53 2 -3 23 6 31 30 27 16 -2 22 -10 23 -29z"/>
<path d="M1899 1865 c-1 0 -2 -27 -3 -60 l-1 -60 -60 -1 c-33 -1 -62 -2 -65
-3 -9 -2 -7 -76 2 -82 5 -3 33 -5 63 -4 34 1 56 -2 56 -9 1 -6 2 -35 3 -65 l1
-55 38 -1 c21 -1 41 3 45 9 3 6 7 36 7 66 l1 55 69 0 69 0 2 38 c1 20 -3 40
-9 44 -6 4 -38 7 -72 8 l-60 0 1 58 c0 31 -2 58 -5 58 -6 1 -80 5 -82 4z m66
-167 c2 -21 -3 -25 -24 -23 -26 1 -35 20 -19 42 15 19 42 8 43 -19z"/>
<path d="M1008 1384 c-16 -8 -29 -20 -29 -27 -6 -56 -3 -70 18 -87 26 -20 69
-18 91 4 7 7 14 28 14 46 1 25 -6 39 -28 57 -34 27 -31 26 -66 7z"/>
<path d="M1584 1365 c-22 -22 -25 -32 -19 -63 8 -43 35 -70 67 -66 13 1 29 3
36 3 7 1 20 17 27 36 35 82 -50 151 -111 90z"/>
</g>
</svg>
