<?xml version="1.0" standalone="no"?>
<!DOCTYPE svg PUBLIC "-//W3C//DTD SVG 20010904//EN"
 "http://www.w3.org/TR/2001/REC-SVG-20010904/DTD/svg10.dtd">
<svg version="1.0" xmlns="http://www.w3.org/2000/svg"
 width="16.000000pt" height="16.000000pt" viewBox="0 0 16.000000 16.000000"
 preserveAspectRatio="xMidYMid meet">
<metadata>
Created by potrace 1.11, written by Peter Selinger 2001-2013
</metadata>
<g transform="translate(0.000000,16.000000) scale(0.001281,-0.001281)"
fill="#000000" stroke="none">
<path d="M11629 11323 c-1 -89 -30 -280 -45 -305 -3 -4 -7 -16 -9 -26 -6 -34
-69 -187 -98 -242 -102 -187 -261 -367 -422 -476 -121 -82 -304 -169 -400
-190 -5 -1 -39 -9 -75 -18 -36 -8 -90 -18 -120 -22 -30 -4 -620 -8 -1310 -9
-1090 -1 -1427 -6 -1451 -20 -3 -2 -27 -6 -55 -10 -27 -3 -65 -10 -84 -15 -19
-5 -46 -11 -60 -13 -48 -9 -184 -49 -250 -74 -8 -3 -19 -7 -25 -9 -26 -6 -184
-78 -239 -108 -121 -66 -210 -121 -276 -170 -264 -194 -501 -466 -645 -739
-20 -38 -40 -76 -45 -85 -5 -9 -24 -51 -41 -92 -107 -252 -170 -535 -173 -785
l-1 -80 430 0 429 0 2 54 c1 29 5 79 10 110 4 31 8 65 9 76 8 71 66 244 120
355 116 239 319 448 567 584 67 36 224 101 269 110 13 3 56 12 95 20 39 9 106
18 150 22 43 4 646 8 1339 9 693 1 1280 5 1305 9 25 4 59 9 75 12 17 2 46 7
65 9 19 3 58 10 85 17 28 7 55 12 60 13 6 0 30 7 55 14 25 7 52 14 60 16 43 8
229 84 337 136 422 206 782 564 993 986 32 65 65 136 73 158 52 142 70 192 74
210 7 31 9 38 16 60 3 11 9 31 11 45 20 94 27 129 31 160 3 19 7 51 10 70 3
19 8 90 11 158 l6 122 -431 0 -431 0 -1 -47z"/>
<path d="M3177 7604 c-1 -1 -51 -4 -112 -8 -60 -3 -128 -8 -150 -11 -161 -20
-192 -24 -230 -32 -16 -4 -37 -8 -45 -9 -8 -2 -28 -5 -45 -8 -16 -3 -34 -7
-40 -7 -5 -1 -66 -17 -135 -36 -69 -19 -138 -38 -155 -42 -16 -5 -55 -19 -85
-31 -30 -12 -60 -23 -66 -24 -44 -7 -365 -159 -499 -235 -37 -21 -258 -166
-280 -183 -214 -169 -221 -175 -344 -293 -393 -378 -684 -852 -849 -1380 -22
-71 -44 -146 -48 -165 -4 -19 -8 -37 -9 -40 -1 -3 -4 -18 -8 -35 -10 -40 -14
-64 -33 -170 -8 -49 -17 -101 -19 -115 -20 -112 -28 -639 -13 -775 14 -117 42
-291 63 -382 3 -13 7 -33 10 -44 21 -95 94 -325 142 -444 331 -824 965 -1466
1788 -1810 17 -7 44 -18 60 -25 34 -14 222 -79 245 -85 8 -2 58 -15 110 -29
52 -14 106 -27 120 -30 14 -3 50 -10 80 -16 66 -13 1225 -14 1267 0 16 4 78
20 139 34 61 14 140 36 175 47 35 12 69 22 74 23 26 5 229 84 315 123 319 144
602 333 875 581 l100 91 661 1 660 0 30 -31 c111 -118 504 -422 594 -460 9 -4
32 -17 51 -30 32 -23 285 -150 339 -171 14 -6 37 -17 52 -24 40 -21 420 -146
426 -140 2 3 12 1 22 -4 9 -5 28 -11 41 -14 13 -3 35 -7 49 -10 104 -23 185
-26 719 -26 474 0 598 3 647 15 34 8 72 16 85 19 73 15 270 72 316 92 17 8 37
14 45 14 8 0 18 3 22 7 3 4 12 8 19 9 7 1 33 11 58 22 25 12 68 30 95 40 58
23 284 139 366 187 63 37 251 162 283 187 361 293 537 477 766 808 25 36 48
72 52 80 4 8 16 29 27 45 43 68 164 301 199 385 13 30 29 69 36 85 67 163 147
435 180 615 9 52 15 91 20 135 4 28 8 61 11 75 13 78 18 198 18 385 1 187 -10
400 -19 415 -2 4 -6 28 -10 56 -9 79 -24 163 -46 254 -12 47 -23 96 -25 109
-3 14 -7 28 -10 33 -3 5 -8 20 -10 35 -22 119 -184 516 -273 668 -16 28 -39
68 -51 89 -135 246 -402 570 -664 801 -144 128 -381 297 -536 383 -197 108
-387 193 -565 252 -103 33 -124 40 -128 39 -1 0 -14 4 -30 10 -15 6 -38 13
-50 16 -12 2 -60 14 -107 25 -47 12 -98 23 -115 25 -16 2 -57 9 -90 15 -55 9
-84 14 -172 25 -124 16 -573 18 -3311 19 -1691 1 -3074 0 -3075 0z m6303 -876
c19 -4 55 -10 80 -14 107 -15 180 -30 250 -50 96 -27 275 -86 285 -93 6 -4 33
-16 60 -26 48 -18 173 -80 265 -133 98 -57 285 -191 364 -262 237 -212 430
-460 560 -720 21 -41 42 -83 47 -93 42 -79 135 -353 153 -447 2 -14 11 -56 20
-95 8 -38 17 -95 21 -125 3 -30 9 -75 12 -100 13 -101 6 -462 -11 -556 -6 -35
-15 -89 -21 -124 -3 -19 -8 -43 -11 -52 -3 -9 -7 -26 -9 -38 -42 -217 -184
-548 -333 -775 -251 -383 -623 -699 -1034 -879 -21 -9 -53 -22 -70 -30 -42
-18 -227 -80 -298 -99 -191 -52 -401 -75 -640 -72 -181 3 -215 6 -310 21 -19
3 -48 7 -64 9 -15 3 -35 7 -45 9 -9 3 -32 8 -51 11 -87 15 -306 82 -410 127
-299 128 -551 297 -776 522 -71 72 -152 159 -178 192 -27 35 -57 64 -69 66
-12 2 -485 3 -1051 3 l-1028 -1 -27 -30 c-14 -17 -62 -73 -106 -124 -127 -147
-311 -306 -490 -422 -67 -43 -250 -148 -259 -148 -3 0 -37 -15 -78 -34 -107
-49 -300 -116 -378 -131 -8 -2 -33 -8 -55 -14 -22 -5 -53 -13 -70 -15 -16 -3
-41 -8 -55 -11 -14 -3 -45 -7 -70 -10 -25 -3 -65 -9 -90 -12 -65 -10 -411 -9
-504 1 -76 7 -91 10 -146 21 -14 3 -41 7 -60 9 -19 3 -80 17 -135 31 -356 94
-663 252 -951 492 -185 153 -384 382 -499 575 -55 92 -140 259 -170 334 -36
89 -75 194 -81 217 -2 9 -6 25 -9 35 -15 54 -46 181 -50 202 -2 14 -6 36 -9
50 -24 124 -31 223 -31 425 0 203 6 284 30 409 8 44 17 91 20 105 3 14 12 51
20 81 9 30 18 64 20 75 20 89 112 314 182 444 64 120 62 116 128 216 250 376
614 681 1030 863 95 41 295 114 295 107 0 -2 15 2 33 10 17 7 49 16 71 19 21
4 41 8 45 10 3 2 22 7 41 10 19 3 49 8 65 11 75 13 94 15 155 21 36 3 67 8 69
10 7 7 6374 -1 6411 -8z"/>
<path d="M2947 5776 c-53 -16 -126 -81 -150 -135 -20 -44 -21 -63 -22 -428 0
-211 -2 -384 -5 -384 -3 -1 -176 -2 -385 -4 -336 -2 -385 -4 -420 -19 -51 -22
-101 -70 -128 -121 -20 -38 -21 -55 -23 -330 -2 -334 4 -363 78 -430 75 -69
70 -68 498 -69 l384 -1 1 -385 c2 -438 2 -439 82 -509 72 -64 92 -67 413 -66
314 2 323 3 395 66 37 32 61 76 73 129 3 14 5 192 6 395 l0 371 386 0 c428 1
423 0 498 69 73 65 77 89 77 415 -1 211 -4 295 -14 324 -17 49 -73 111 -125
139 -39 20 -55 21 -421 23 -209 1 -385 2 -390 3 -7 1 -10 132 -11 374 0 261
-4 385 -13 415 -15 52 -67 112 -124 143 -41 23 -50 23 -332 24 -183 1 -304 -2
-328 -9z"/>
<path d="M9088 5770 c-130 -34 -218 -99 -294 -217 -85 -131 -92 -315 -18 -471
48 -102 195 -222 304 -248 55 -14 177 -16 229 -4 139 31 265 129 326 254 44
88 47 100 51 209 5 130 -35 236 -126 341 -56 63 -200 141 -270 145 -8 0 -42 2
-75 4 -36 2 -87 -3 -127 -13z"/>
<path d="M8145 4813 c-131 -27 -264 -125 -323 -237 -14 -28 -27 -53 -27 -56
-1 -3 -5 -12 -8 -20 -16 -38 -25 -107 -22 -182 5 -133 53 -237 154 -331 55
-51 145 -103 193 -112 11 -2 29 -7 40 -11 22 -6 151 -7 178 -1 107 26 168 57
239 123 128 118 182 275 151 443 -50 267 -306 438 -575 384z"/>
<path d="M10128 4825 c-2 -2 -21 -5 -43 -8 -96 -14 -192 -65 -267 -145 -265
-280 -110 -741 272 -809 62 -11 185 -4 210 12 5 3 19 8 30 10 59 11 172 96
235 175 26 33 72 145 80 195 7 48 8 162 1 173 -3 5 -7 20 -9 33 -3 14 -19 55
-35 92 -41 90 -125 174 -221 221 -39 19 -71 33 -71 30 0 -2 -12 1 -26 6 -24 9
-149 21 -156 15z"/>
<path d="M9167 3864 c-1 -1 -22 -5 -46 -9 -177 -26 -337 -177 -385 -361 -12
-47 -14 -177 -3 -219 16 -62 53 -141 87 -183 144 -183 353 -242 570 -160 90
33 195 129 243 220 165 316 -49 691 -407 711 -31 2 -57 2 -59 1z"/>
</g>
</svg>
